<svg xmlns="http://www.w3.org/2000/svg" style="display: none;">
  <!-- Navigation Icons -->
  <symbol id="icon-menu" viewBox="0 0 24 24" fill="none" stroke="currentColor" stroke-width="1.5" stroke-linecap="round" stroke-linejoin="round">
    <line x1="3" y1="6" x2="21" y2="6"/>
    <line x1="3" y1="12" x2="21" y2="12"/>
    <line x1="3" y1="18" x2="21" y2="18"/>
  </symbol>

  <symbol id="icon-close" viewBox="0 0 24 24" fill="none" stroke="currentColor" stroke-width="1.5" stroke-linecap="round" stroke-linejoin="round">
    <line x1="18" y1="6" x2="6" y2="18"/>
    <line x1="6" y1="6" x2="18" y2="18"/>
  </symbol>

  <symbol id="icon-search" viewBox="0 0 24 24" fill="none" stroke="currentColor" stroke-width="1.5" stroke-linecap="round" stroke-linejoin="round">
    <circle cx="11" cy="11" r="8"/>
    <line x1="21" y1="21" x2="16.65" y2="16.65"/>
  </symbol>

  <symbol id="icon-cart" viewBox="0 0 24 24" fill="none" stroke="currentColor" stroke-width="1.5" stroke-linecap="round" stroke-linejoin="round">
    <path d="M6 2L3 6v14a2 2 0 0 0 2 2h14a2 2 0 0 0 2-2V6l-3-4z"/>
    <line x1="3" y1="6" x2="21" y2="6"/>
    <path d="M16 10a4 4 0 0 1-8 0"/>
  </symbol>

  <symbol id="icon-account" viewBox="0 0 24 24" fill="none" stroke="currentColor" stroke-width="1.5" stroke-linecap="round" stroke-linejoin="round">
    <path d="M20 21v-2a4 4 0 0 0-4-4H8a4 4 0 0 0-4 4v2"/>
    <circle cx="12" cy="7" r="4"/>
  </symbol>

  <!-- Chevrons -->
  <symbol id="icon-chevron-down" viewBox="0 0 24 24" fill="none" stroke="currentColor" stroke-width="1.5" stroke-linecap="round" stroke-linejoin="round">
    <polyline points="6 9 12 15 18 9"/>
  </symbol>

  <symbol id="icon-chevron-up" viewBox="0 0 24 24" fill="none" stroke="currentColor" stroke-width="1.5" stroke-linecap="round" stroke-linejoin="round">
    <polyline points="18 15 12 9 6 15"/>
  </symbol>

  <symbol id="icon-chevron-left" viewBox="0 0 24 24" fill="none" stroke="currentColor" stroke-width="1.5" stroke-linecap="round" stroke-linejoin="round">
    <polyline points="15 18 9 12 15 6"/>
  </symbol>

  <symbol id="icon-chevron-right" viewBox="0 0 24 24" fill="none" stroke="currentColor" stroke-width="1.5" stroke-linecap="round" stroke-linejoin="round">
    <polyline points="9 18 15 12 9 6"/>
  </symbol>

  <!-- Arrows -->
  <symbol id="icon-arrow-left" viewBox="0 0 24 24" fill="none" stroke="currentColor" stroke-width="1.5" stroke-linecap="round" stroke-linejoin="round">
    <line x1="19" y1="12" x2="5" y2="12"/>
    <polyline points="12 19 5 12 12 5"/>
  </symbol>

  <symbol id="icon-arrow-right" viewBox="0 0 24 24" fill="none" stroke="currentColor" stroke-width="1.5" stroke-linecap="round" stroke-linejoin="round">
    <line x1="5" y1="12" x2="19" y2="12"/>
    <polyline points="12 5 19 12 12 19"/>
  </symbol>

  <symbol id="icon-external-link" viewBox="0 0 24 24" fill="none" stroke="currentColor" stroke-width="1.5" stroke-linecap="round" stroke-linejoin="round">
    <path d="M18 13v6a2 2 0 0 1-2 2H5a2 2 0 0 1-2-2V8a2 2 0 0 1 2-2h6"/>
    <polyline points="15 3 21 3 21 9"/>
    <line x1="10" y1="14" x2="21" y2="3"/>
  </symbol>

  <!-- Actions -->
  <symbol id="icon-plus" viewBox="0 0 24 24" fill="none" stroke="currentColor" stroke-width="1.5" stroke-linecap="round" stroke-linejoin="round">
    <line x1="12" y1="5" x2="12" y2="19"/>
    <line x1="5" y1="12" x2="19" y2="12"/>
  </symbol>

  <symbol id="icon-minus" viewBox="0 0 24 24" fill="none" stroke="currentColor" stroke-width="1.5" stroke-linecap="round" stroke-linejoin="round">
    <line x1="5" y1="12" x2="19" y2="12"/>
  </symbol>

  <symbol id="icon-check" viewBox="0 0 24 24" fill="none" stroke="currentColor" stroke-width="1.5" stroke-linecap="round" stroke-linejoin="round">
    <polyline points="20 6 9 17 4 12"/>
  </symbol>

  <symbol id="icon-trash" viewBox="0 0 24 24" fill="none" stroke="currentColor" stroke-width="1.5" stroke-linecap="round" stroke-linejoin="round">
    <polyline points="3 6 5 6 21 6"/>
    <path d="M19 6v14a2 2 0 0 1-2 2H7a2 2 0 0 1-2-2V6m3 0V4a2 2 0 0 1 2-2h4a2 2 0 0 1 2 2v2"/>
  </symbol>

  <symbol id="icon-heart" viewBox="0 0 24 24" fill="none" stroke="currentColor" stroke-width="1.5" stroke-linecap="round" stroke-linejoin="round">
    <path d="M20.84 4.61a5.5 5.5 0 0 0-7.78 0L12 5.67l-1.06-1.06a5.5 5.5 0 0 0-7.78 7.78l1.06 1.06L12 21.23l7.78-7.78 1.06-1.06a5.5 5.5 0 0 0 0-7.78z"/>
  </symbol>

  <symbol id="icon-heart-filled" viewBox="0 0 24 24" fill="currentColor" stroke="currentColor" stroke-width="1.5" stroke-linecap="round" stroke-linejoin="round">
    <path d="M20.84 4.61a5.5 5.5 0 0 0-7.78 0L12 5.67l-1.06-1.06a5.5 5.5 0 0 0-7.78 7.78l1.06 1.06L12 21.23l7.78-7.78 1.06-1.06a5.5 5.5 0 0 0 0-7.78z"/>
  </symbol>

  <symbol id="icon-share" viewBox="0 0 24 24" fill="none" stroke="currentColor" stroke-width="1.5" stroke-linecap="round" stroke-linejoin="round">
    <circle cx="18" cy="5" r="3"/>
    <circle cx="6" cy="12" r="3"/>
    <circle cx="18" cy="19" r="3"/>
    <line x1="8.59" y1="13.51" x2="15.42" y2="17.49"/>
    <line x1="15.41" y1="6.51" x2="8.59" y2="10.49"/>
  </symbol>

  <symbol id="icon-edit" viewBox="0 0 24 24" fill="none" stroke="currentColor" stroke-width="1.5" stroke-linecap="round" stroke-linejoin="round">
    <path d="M11 4H4a2 2 0 0 0-2 2v14a2 2 0 0 0 2 2h14a2 2 0 0 0 2-2v-7"/>
    <path d="M18.5 2.5a2.121 2.121 0 0 1 3 3L12 15l-4 1 1-4 9.5-9.5z"/>
  </symbol>

  <!-- Social Media -->
  <symbol id="icon-facebook" viewBox="0 0 24 24" fill="currentColor">
    <path d="M18 2h-3a5 5 0 0 0-5 5v3H7v4h3v8h4v-8h3l1-4h-4V7a1 1 0 0 1 1-1h3z"/>
  </symbol>

  <symbol id="icon-instagram" viewBox="0 0 24 24" fill="none" stroke="currentColor" stroke-width="1.5" stroke-linecap="round" stroke-linejoin="round">
    <rect x="2" y="2" width="20" height="20" rx="5" ry="5"/>
    <path d="M16 11.37A4 4 0 1 1 12.63 8 4 4 0 0 1 16 11.37z"/>
    <line x1="17.5" y1="6.5" x2="17.51" y2="6.5"/>
  </symbol>

  <symbol id="icon-twitter" viewBox="0 0 24 24" fill="currentColor">
    <path d="M18.244 2.25h3.308l-7.227 8.26 8.502 11.24H16.17l-5.214-6.817L4.99 21.75H1.68l7.73-8.835L1.254 2.25H8.08l4.713 6.231zm-1.161 17.52h1.833L7.084 4.126H5.117z"/>
  </symbol>

  <symbol id="icon-pinterest" viewBox="0 0 24 24" fill="currentColor">
    <path d="M12 0C5.373 0 0 5.373 0 12c0 5.084 3.163 9.426 7.627 11.174-.105-.949-.2-2.405.042-3.441.218-.937 1.407-5.965 1.407-5.965s-.359-.719-.359-1.782c0-1.668.967-2.914 2.171-2.914 1.023 0 1.518.769 1.518 1.69 0 1.029-.655 2.568-.994 3.995-.283 1.194.599 2.169 1.777 2.169 2.133 0 3.772-2.249 3.772-5.495 0-2.873-2.064-4.882-5.012-4.882-3.414 0-5.418 2.561-5.418 5.207 0 1.031.397 2.138.893 2.738.098.119.112.224.083.345l-.333 1.36c-.053.22-.174.267-.402.161-1.499-.698-2.436-2.889-2.436-4.649 0-3.785 2.75-7.262 7.929-7.262 4.163 0 7.398 2.967 7.398 6.931 0 4.136-2.607 7.464-6.227 7.464-1.216 0-2.359-.632-2.75-1.378l-.748 2.853c-.271 1.043-1.002 2.35-1.492 3.146C9.57 23.812 10.763 24 12 24c6.627 0 12-5.373 12-12S18.627 0 12 0z"/>
  </symbol>

  <symbol id="icon-youtube" viewBox="0 0 24 24" fill="currentColor">
    <path d="M23.498 6.186a3.016 3.016 0 0 0-2.122-2.136C19.505 3.545 12 3.545 12 3.545s-7.505 0-9.377.505A3.017 3.017 0 0 0 .502 6.186C0 8.07 0 12 0 12s0 3.93.502 5.814a3.016 3.016 0 0 0 2.122 2.136c1.871.505 9.376.505 9.376.505s7.505 0 9.377-.505a3.015 3.015 0 0 0 2.122-2.136C24 15.93 24 12 24 12s0-3.93-.502-5.814zM9.545 15.568V8.432L15.818 12l-6.273 3.568z"/>
  </symbol>

  <symbol id="icon-tiktok" viewBox="0 0 24 24" fill="currentColor">
    <path d="M19.59 6.69a4.83 4.83 0 0 1-3.77-4.25V2h-3.45v13.67a2.89 2.89 0 0 1-5.2 1.74 2.89 2.89 0 0 1 2.31-4.64 2.93 2.93 0 0 1 .88.13V9.4a6.84 6.84 0 0 0-1-.05A6.33 6.33 0 0 0 5 20.1a6.34 6.34 0 0 0 10.86-4.43v-7a8.16 8.16 0 0 0 4.77 1.52v-3.4a4.85 4.85 0 0 1-1-.1z"/>
  </symbol>

  <symbol id="icon-linkedin" viewBox="0 0 24 24" fill="currentColor">
    <path d="M20.447 20.452h-3.554v-5.569c0-1.328-.027-3.037-1.852-3.037-1.853 0-2.136 1.445-2.136 2.939v5.667H9.351V9h3.414v1.561h.046c.477-.9 1.637-1.85 3.37-1.85 3.601 0 4.267 2.37 4.267 5.455v6.286zM5.337 7.433c-1.144 0-2.063-.926-2.063-2.065 0-1.138.92-2.063 2.063-2.063 1.14 0 2.064.925 2.064 2.063 0 1.139-.925 2.065-2.064 2.065zm1.782 13.019H3.555V9h3.564v11.452zM22.225 0H1.771C.792 0 0 .774 0 1.729v20.542C0 23.227.792 24 1.771 24h20.451C23.2 24 24 23.227 24 22.271V1.729C24 .774 23.2 0 22.222 0h.003z"/>
  </symbol>

  <!-- Status & Info -->
  <symbol id="icon-info" viewBox="0 0 24 24" fill="none" stroke="currentColor" stroke-width="1.5" stroke-linecap="round" stroke-linejoin="round">
    <circle cx="12" cy="12" r="10"/>
    <line x1="12" y1="16" x2="12" y2="12"/>
    <line x1="12" y1="8" x2="12.01" y2="8"/>
  </symbol>

  <symbol id="icon-alert-circle" viewBox="0 0 24 24" fill="none" stroke="currentColor" stroke-width="1.5" stroke-linecap="round" stroke-linejoin="round">
    <circle cx="12" cy="12" r="10"/>
    <line x1="12" y1="8" x2="12" y2="12"/>
    <line x1="12" y1="16" x2="12.01" y2="16"/>
  </symbol>

  <symbol id="icon-check-circle" viewBox="0 0 24 24" fill="none" stroke="currentColor" stroke-width="1.5" stroke-linecap="round" stroke-linejoin="round">
    <path d="M22 11.08V12a10 10 0 1 1-5.93-9.14"/>
    <polyline points="22 4 12 14.01 9 11.01"/>
  </symbol>

  <!-- E-commerce -->
  <symbol id="icon-tag" viewBox="0 0 24 24" fill="none" stroke="currentColor" stroke-width="1.5" stroke-linecap="round" stroke-linejoin="round">
    <path d="M20.59 13.41l-7.17 7.17a2 2 0 0 1-2.83 0L2 12V2h10l8.59 8.59a2 2 0 0 1 0 2.82z"/>
    <line x1="7" y1="7" x2="7.01" y2="7"/>
  </symbol>

  <symbol id="icon-gift" viewBox="0 0 24 24" fill="none" stroke="currentColor" stroke-width="1.5" stroke-linecap="round" stroke-linejoin="round">
    <polyline points="20 12 20 22 4 22 4 12"/>
    <rect x="2" y="7" width="20" height="5"/>
    <line x1="12" y1="22" x2="12" y2="7"/>
    <path d="M12 7H7.5a2.5 2.5 0 0 1 0-5C11 2 12 7 12 7z"/>
    <path d="M12 7h4.5a2.5 2.5 0 0 0 0-5C13 2 12 7 12 7z"/>
  </symbol>

  <symbol id="icon-truck" viewBox="0 0 24 24" fill="none" stroke="currentColor" stroke-width="1.5" stroke-linecap="round" stroke-linejoin="round">
    <rect x="1" y="3" width="15" height="13"/>
    <polygon points="16 8 20 8 23 11 23 16 16 16 16 8"/>
    <circle cx="5.5" cy="18.5" r="2.5"/>
    <circle cx="18.5" cy="18.5" r="2.5"/>
  </symbol>

  <symbol id="icon-package" viewBox="0 0 24 24" fill="none" stroke="currentColor" stroke-width="1.5" stroke-linecap="round" stroke-linejoin="round">
    <line x1="16.5" y1="9.4" x2="7.5" y2="4.21"/>
    <path d="M21 16V8a2 2 0 0 0-1-1.73l-7-4a2 2 0 0 0-2 0l-7 4A2 2 0 0 0 3 8v8a2 2 0 0 0 1 1.73l7 4a2 2 0 0 0 2 0l7-4A2 2 0 0 0 21 16z"/>
    <polyline points="3.27 6.96 12 12.01 20.73 6.96"/>
    <line x1="12" y1="22.08" x2="12" y2="12"/>
  </symbol>

  <symbol id="icon-credit-card" viewBox="0 0 24 24" fill="none" stroke="currentColor" stroke-width="1.5" stroke-linecap="round" stroke-linejoin="round">
    <rect x="1" y="4" width="22" height="16" rx="2" ry="2"/>
    <line x1="1" y1="10" x2="23" y2="10"/>
  </symbol>

  <symbol id="icon-lock" viewBox="0 0 24 24" fill="none" stroke="currentColor" stroke-width="1.5" stroke-linecap="round" stroke-linejoin="round">
    <rect x="3" y="11" width="18" height="11" rx="2" ry="2"/>
    <path d="M7 11V7a5 5 0 0 1 10 0v4"/>
  </symbol>

  <!-- Media -->
  <symbol id="icon-play" viewBox="0 0 24 24" fill="currentColor">
    <polygon points="5 3 19 12 5 21 5 3"/>
  </symbol>

  <symbol id="icon-pause" viewBox="0 0 24 24" fill="currentColor">
    <rect x="6" y="4" width="4" height="16"/>
    <rect x="14" y="4" width="4" height="16"/>
  </symbol>

  <symbol id="icon-volume" viewBox="0 0 24 24" fill="none" stroke="currentColor" stroke-width="1.5" stroke-linecap="round" stroke-linejoin="round">
    <polygon points="11 5 6 9 2 9 2 15 6 15 11 19 11 5"/>
    <path d="M19.07 4.93a10 10 0 0 1 0 14.14M15.54 8.46a5 5 0 0 1 0 7.07"/>
  </symbol>

  <symbol id="icon-volume-mute" viewBox="0 0 24 24" fill="none" stroke="currentColor" stroke-width="1.5" stroke-linecap="round" stroke-linejoin="round">
    <polygon points="11 5 6 9 2 9 2 15 6 15 11 19 11 5"/>
    <line x1="23" y1="9" x2="17" y2="15"/>
    <line x1="17" y1="9" x2="23" y2="15"/>
  </symbol>

  <symbol id="icon-maximize" viewBox="0 0 24 24" fill="none" stroke="currentColor" stroke-width="1.5" stroke-linecap="round" stroke-linejoin="round">
    <polyline points="15 3 21 3 21 9"/>
    <polyline points="9 21 3 21 3 15"/>
    <line x1="21" y1="3" x2="14" y2="10"/>
    <line x1="3" y1="21" x2="10" y2="14"/>
  </symbol>

  <symbol id="icon-zoom-in" viewBox="0 0 24 24" fill="none" stroke="currentColor" stroke-width="1.5" stroke-linecap="round" stroke-linejoin="round">
    <circle cx="11" cy="11" r="8"/>
    <line x1="21" y1="21" x2="16.65" y2="16.65"/>
    <line x1="11" y1="8" x2="11" y2="14"/>
    <line x1="8" y1="11" x2="14" y2="11"/>
  </symbol>

  <!-- Misc -->
  <symbol id="icon-filter" viewBox="0 0 24 24" fill="none" stroke="currentColor" stroke-width="1.5" stroke-linecap="round" stroke-linejoin="round">
    <polygon points="22 3 2 3 10 12.46 10 19 14 21 14 12.46 22 3"/>
  </symbol>

  <symbol id="icon-grid" viewBox="0 0 24 24" fill="none" stroke="currentColor" stroke-width="1.5" stroke-linecap="round" stroke-linejoin="round">
    <rect x="3" y="3" width="7" height="7"/>
    <rect x="14" y="3" width="7" height="7"/>
    <rect x="14" y="14" width="7" height="7"/>
    <rect x="3" y="14" width="7" height="7"/>
  </symbol>

  <symbol id="icon-list" viewBox="0 0 24 24" fill="none" stroke="currentColor" stroke-width="1.5" stroke-linecap="round" stroke-linejoin="round">
    <line x1="8" y1="6" x2="21" y2="6"/>
    <line x1="8" y1="12" x2="21" y2="12"/>
    <line x1="8" y1="18" x2="21" y2="18"/>
    <line x1="3" y1="6" x2="3.01" y2="6"/>
    <line x1="3" y1="12" x2="3.01" y2="12"/>
    <line x1="3" y1="18" x2="3.01" y2="18"/>
  </symbol>

  <symbol id="icon-mail" viewBox="0 0 24 24" fill="none" stroke="currentColor" stroke-width="1.5" stroke-linecap="round" stroke-linejoin="round">
    <path d="M4 4h16c1.1 0 2 .9 2 2v12c0 1.1-.9 2-2 2H4c-1.1 0-2-.9-2-2V6c0-1.1.9-2 2-2z"/>
    <polyline points="22,6 12,13 2,6"/>
  </symbol>

  <symbol id="icon-phone" viewBox="0 0 24 24" fill="none" stroke="currentColor" stroke-width="1.5" stroke-linecap="round" stroke-linejoin="round">
    <path d="M22 16.92v3a2 2 0 0 1-2.18 2 19.79 19.79 0 0 1-8.63-3.07 19.5 19.5 0 0 1-6-6 19.79 19.79 0 0 1-3.07-8.67A2 2 0 0 1 4.11 2h3a2 2 0 0 1 2 1.72 12.84 12.84 0 0 0 .7 2.81 2 2 0 0 1-.45 2.11L8.09 9.91a16 16 0 0 0 6 6l1.27-1.27a2 2 0 0 1 2.11-.45 12.84 12.84 0 0 0 2.81.7A2 2 0 0 1 22 16.92z"/>
  </symbol>

  <symbol id="icon-map-pin" viewBox="0 0 24 24" fill="none" stroke="currentColor" stroke-width="1.5" stroke-linecap="round" stroke-linejoin="round">
    <path d="M21 10c0 7-9 13-9 13s-9-6-9-13a9 9 0 0 1 18 0z"/>
    <circle cx="12" cy="10" r="3"/>
  </symbol>

  <symbol id="icon-star" viewBox="0 0 24 24" fill="none" stroke="currentColor" stroke-width="1.5" stroke-linecap="round" stroke-linejoin="round">
    <polygon points="12 2 15.09 8.26 22 9.27 17 14.14 18.18 21.02 12 17.77 5.82 21.02 7 14.14 2 9.27 8.91 8.26 12 2"/>
  </symbol>

  <symbol id="icon-star-filled" viewBox="0 0 24 24" fill="currentColor">
    <polygon points="12 2 15.09 8.26 22 9.27 17 14.14 18.18 21.02 12 17.77 5.82 21.02 7 14.14 2 9.27 8.91 8.26 12 2"/>
  </symbol>

  <symbol id="icon-calendar" viewBox="0 0 24 24" fill="none" stroke="currentColor" stroke-width="1.5" stroke-linecap="round" stroke-linejoin="round">
    <rect x="3" y="4" width="18" height="18" rx="2" ry="2"/>
    <line x1="16" y1="2" x2="16" y2="6"/>
    <line x1="8" y1="2" x2="8" y2="6"/>
    <line x1="3" y1="10" x2="21" y2="10"/>
  </symbol>

  <symbol id="icon-clock" viewBox="0 0 24 24" fill="none" stroke="currentColor" stroke-width="1.5" stroke-linecap="round" stroke-linejoin="round">
    <circle cx="12" cy="12" r="10"/>
    <polyline points="12 6 12 12 16 14"/>
  </symbol>

  <symbol id="icon-refresh" viewBox="0 0 24 24" fill="none" stroke="currentColor" stroke-width="1.5" stroke-linecap="round" stroke-linejoin="round">
    <polyline points="23 4 23 10 17 10"/>
    <polyline points="1 20 1 14 7 14"/>
    <path d="M3.51 9a9 9 0 0 1 14.85-3.36L23 10M1 14l4.64 4.36A9 9 0 0 0 20.49 15"/>
  </symbol>

  <symbol id="icon-loader" viewBox="0 0 24 24" fill="none" stroke="currentColor" stroke-width="1.5" stroke-linecap="round" stroke-linejoin="round">
    <line x1="12" y1="2" x2="12" y2="6"/>
    <line x1="12" y1="18" x2="12" y2="22"/>
    <line x1="4.93" y1="4.93" x2="7.76" y2="7.76"/>
    <line x1="16.24" y1="16.24" x2="19.07" y2="19.07"/>
    <line x1="2" y1="12" x2="6" y2="12"/>
    <line x1="18" y1="12" x2="22" y2="12"/>
    <line x1="4.93" y1="19.07" x2="7.76" y2="16.24"/>
    <line x1="16.24" y1="7.76" x2="19.07" y2="4.93"/>
  </symbol>
</svg>
