<svg xmlns="http://www.w3.org/2000/svg" width="612" height="597" fill="none"><path stroke="#000" stroke-linecap="round" stroke-linejoin="round" stroke-width="8.5" d="M224.535 99.778c9.457-27.047 27.871-45.07 47.515-43.475 4.172.34 8.155 1.547 11.89 3.5 9.391 4.944 17.169 14.69 22.408 27.424"/><path stroke="#000" stroke-linecap="round" stroke-linejoin="round" stroke-width="8.5" d="M254.15 94.159c7.155-17.34 17.87-29.952 29.789-34.357 3.681-1.35 7.485-1.925 11.319-1.614 12.651 1.027 23.279 11.48 29.998 27.344"/><path fill="#4BFE85" stroke="#000" stroke-linecap="round" stroke-linejoin="round" stroke-width="8.5" d="M388.842 310.193s-36.946 22.622-66.843 20.823c-5.207-80.129 6.269-178.523 20.033-246.672 0 0 2.312 2.721 19.719 18.043 0 0 6.873 1.204 21.881 3.358-3.742 57.588-.72 148.931 5.21 204.448Z"/><path fill="#4BFE85" stroke="#000" stroke-linecap="round" stroke-linejoin="round" stroke-width="8.5" d="M321.998 331.016s-119.641-1.708-179.758-32.518c2.054-17.55 19.306-114.625 55.329-192.035 0 0 53.691-16.518 144.461-22.12-13.763 68.15-25.239 166.544-20.032 246.673Z"/><path fill="#000" d="M241.613 165.62c-.113.773-.262 1.56-.411 2.347-3.649 18.763-15.99 32.128-27.522 29.882-11.549-2.247-17.952-19.293-14.287-38.038 3.666-18.761 15.991-32.144 27.539-29.88 4.235.82 7.764 3.623 10.37 7.762l-17.005 26.196 21.316 1.731ZM301.96 163.244c-.114.773-.262 1.56-.411 2.347-3.649 18.763-15.99 32.128-27.522 29.882-11.549-2.247-17.952-19.293-14.287-38.038 3.666-18.762 15.991-32.144 27.538-29.881 4.235.82 7.765 3.623 10.37 7.762l-17.004 26.197 21.316 1.731Z"/><g filter="url(#a)"><ellipse cx="186.683" cy="6.667" fill="#2D2D2D" fill-opacity=".34" rx="186.683" ry="6.667" transform="matrix(1 0 0 -1 55.457 540.572)"/></g><g filter="url(#b)"><ellipse cx="77.442" cy="4.616" fill="#2D2D2D" fill-opacity=".34" rx="77.442" ry="4.616" transform="matrix(1 0 0 -1 445.946 538.521)"/></g><path stroke="#000" stroke-linecap="round" stroke-linejoin="round" stroke-width="19.489" d="M292.325 387.738c7.839 22.494 32.162 29.46 46.313 41.832"/><path fill="#A5E3B9" stroke="#000" stroke-linecap="round" stroke-linejoin="round" stroke-width="7" d="M336.405 443.771a43.856 43.856 0 0 1-6.714 20.144 33.577 33.577 0 0 0-19.086-8.175c-4.147-6.026-12.993-19.439-2.501-21.537 10.206-2.048 22.812-5.372 25.716-2.149 2.216 2.434 2.938 6.799 2.585 11.717Z"/><path fill="#fff" stroke="#000" stroke-linecap="round" stroke-linejoin="round" stroke-width="7" d="M344.614 490.689c-9.484 8.846-23.35 16.484-44.903 17.659-7.571.42-12.859-2.132-16.216-6.295-11.012-13.781-.52-45.323 20.782-46.481 2.104-.12 4.215-.07 6.311.151a33.574 33.574 0 0 1 19.086 8.108 43.634 43.634 0 0 1 9.871 12.774 57.985 57.985 0 0 1 5.069 14.084Z"/><path fill="#A5E3B9" stroke="#000" stroke-linecap="round" stroke-linejoin="round" stroke-width="7" d="M368.703 453.759c-.269 3.743-3.022 8.091-7.336 14.94-3.727 5.976-8.628 14.403-16.786 21.957a57.975 57.975 0 0 0-5.036-14.017c15.829-8.93 3.474-28.738 20.378-36.04a23.982 23.982 0 0 0 3.055 3.172c4.247 3.794 5.926 6.631 5.725 9.988Z"/><path fill="#95BF47" stroke="#000" stroke-linecap="round" stroke-linejoin="round" stroke-width="7" d="M359.923 440.599c-16.904 7.302-4.549 27.11-20.379 36.04a43.631 43.631 0 0 0-9.87-12.774 43.873 43.873 0 0 0 6.715-20.144c7.335-18.65 17.743-20.412 19.892-16.82 1.947 3.189-1.293 7.42 3.642 13.698Z"/><path fill="#fff" stroke="#000" stroke-linecap="round" stroke-linejoin="round" stroke-width="7" d="M356.348 492.2c-15.108 18.801-31.643 23.753-48.866 25.968-16.786 2.132-23.584-3.961-23.987-16.148 3.357 4.163 8.645 6.714 16.215 6.295 21.554-1.175 35.42-8.813 44.904-17.66 8.125-7.553 13.026-15.98 16.786-21.956 4.314-6.849 7.067-11.197 7.336-14.94 9.467 9.669 3.374 18.901-12.388 38.441Z"/><path stroke="#000" stroke-linecap="round" stroke-linejoin="round" stroke-width="19.489" d="M182.272 396.97c-10.293 26.237-28.494 44.021-33.849 48.209"/><path fill="#000" fill-opacity=".8" stroke="silver" stroke-width="11.283" d="M73.606 179.515h384.648v221.557H73.606z"/><g clip-path="url(#c)"><path fill="#364135" d="M169.512 185.67h208.736l11.283 155.911-63.596 12.821-94.367-4.616-94.88-13.334 11.283-79.494 21.541-71.288Z"/><path stroke="#78AD84" stroke-linecap="round" stroke-linejoin="round" stroke-width="6.872" d="M326.992 180.978c-8.559 47.977-15.353 118.675-3.17 173.937 31.316-.436 67.76-18.2 67.76-18.2-10.857-38.158-9.222-115.646-10.248-155.737"/><path stroke="#78AD84" stroke-linecap="round" stroke-linejoin="round" stroke-width="6.872" d="M324.91 354.915s-122.63-2.074-187.709-19.08c.654-11.619 12.564-100.074 33.124-154.246"/><path stroke="#fff" stroke-linecap="round" stroke-width="10.137" d="M5.068-5.068H9.18" transform="matrix(.9967 -.08123 .0532 .99858 230.232 219.506)"/><path stroke="#fff" stroke-linecap="round" stroke-width="10.137" d="M5.068-5.068H9.18" transform="matrix(.9967 -.08123 .0532 .99858 227.893 252.766)"/><path stroke="#fff" stroke-linecap="round" stroke-width="10.137" d="M5.068-5.068h.158" transform="matrix(.99914 -.04147 .04773 .99886 227.949 284.936)"/><path stroke="#fff" stroke-linecap="round" stroke-width="10.137" d="M5.068-5.068h6.612" transform="matrix(.99967 -.02559 .03185 .9995 224.721 302.036)"/><path stroke="#fff" stroke-linecap="round" stroke-width="10.137" d="m231.422 196.122 16.587-.103"/><path stroke="#fff" stroke-linecap="square" stroke-width="6.758" d="M261.546 226.936c-1.032-2.514-4.645-7.65-10.838-8.081"/><ellipse cx="248.656" cy="219.865" fill="#fff" rx="3.251" ry="3.03"/><ellipse cx="3.126" cy="3.159" fill="#fff" rx="3.126" ry="3.159" transform="matrix(.67812 .73495 -.78032 .62538 261.331 224.99)"/><ellipse cx="250.708" cy="215.825" fill="#fff" rx="3.251" ry="3.03"/><ellipse cx="3.126" cy="3.159" fill="#fff" rx="3.126" ry="3.159" transform="matrix(.67812 .73495 -.78032 .62538 264.618 222.355)"/><path stroke="#fff" stroke-linecap="square" stroke-width="6.758" d="M220.897 218.185c-2.659 1.05-8.038 4.597-8.28 10.381"/><ellipse cx="3.03" cy="3.251" fill="#fff" rx="3.03" ry="3.251" transform="matrix(-.03807 -.99928 .99945 -.03308 210.566 233.717)"/><ellipse cx="3.159" cy="3.126" fill="#fff" rx="3.159" ry="3.126" transform="matrix(.75603 -.6508 .70567 .71205 218.818 218.454)"/><ellipse cx="3.03" cy="3.251" fill="#fff" rx="3.03" ry="3.251" transform="matrix(-.03807 -.99928 .99945 -.03308 206.234 231.809)"/><ellipse cx="3.159" cy="3.126" fill="#fff" rx="3.159" ry="3.126" transform="matrix(.75603 -.6508 .70567 .71205 215.877 215.485)"/><path stroke="#fff" stroke-linecap="square" stroke-width="6.758" d="M209.293 241.44c1.489 2.307 6.01 6.774 12.188 6.189"/><ellipse cx="3.245" cy="3.037" fill="#fff" rx="3.245" ry="3.037" transform="matrix(-.98656 .16339 -.1873 -.9823 226.087 248.062)"/><ellipse cx="3.127" cy="3.158" fill="#fff" rx="3.127" ry="3.158" transform="matrix(-.80537 -.61284 .6511 -.74321 209.87 243.321)"/><ellipse cx="3.245" cy="3.037" fill="#fff" rx="3.245" ry="3.037" transform="matrix(-.98656 .16339 -.1873 -.9823 225.82 253.066)"/><ellipse cx="3.127" cy="3.158" fill="#fff" rx="3.127" ry="3.158" transform="matrix(-.80537 -.61284 .6511 -.74321 207.128 246.451)"/><path stroke="#fff" stroke-linecap="square" stroke-width="6.758" d="M248.89 255.257c2.83.536 8.858 3.015 10.33 8.638"/><ellipse cx="3.036" cy="3.246" fill="#fff" rx="3.036" ry="3.246" transform="matrix(-.17565 -.98445 -.9882 .15315 261.892 268.605)"/><ellipse cx="3.158" cy="3.127" fill="#fff" rx="3.158" ry="3.127" transform="matrix(-.88007 -.49775 -.53942 .82843 250.985 255.135)"/><ellipse cx="3.036" cy="3.246" fill="#fff" rx="3.036" ry="3.246" transform="matrix(-.17565 -.98445 -.9882 .15315 266.168 265.89)"/><ellipse cx="3.158" cy="3.127" fill="#fff" rx="3.158" ry="3.127" transform="matrix(-.88007 -.49775 -.53942 .82843 253.234 251.68)"/><path stroke="#fff" stroke-linecap="square" stroke-width="6.758" d="M259.53 277.391c-1.54 2.277-6.161 6.654-12.325 5.947"/><ellipse cx="3.243" cy="3.039" fill="#fff" rx="3.243" ry="3.039" transform="matrix(.98313 .18288 .2094 -.97783 241.541 283.701)"/><ellipse cx="3.127" cy="3.158" fill="#fff" rx="3.127" ry="3.158" transform="matrix(.81902 -.59679 -.63414 -.75593 258.911 279.26)"/><ellipse cx="3.243" cy="3.039" fill="#fff" rx="3.243" ry="3.039" transform="matrix(.98313 .18288 .2094 -.97783 242.744 288.688)"/><ellipse cx="3.127" cy="3.158" fill="#fff" rx="3.127" ry="3.158" transform="matrix(.81902 -.59679 -.63414 -.75593 261.581 282.443)"/><path stroke="#fff" stroke-linecap="square" stroke-width="6.758" d="M287.715 383.717c-3.642-2.052-10.689-8.275-9.743-16.757"/><ellipse cx="4.475" cy="4.781" fill="#fff" rx="4.475" ry="4.781" transform="matrix(-.18967 .98185 .98621 .16548 277.765 357.038)"/><ellipse cx="4.653" cy="4.607" fill="#fff" rx="4.653" ry="4.607" transform="matrix(.64929 .7446 .80685 -.61113 284.743 382.919)"/><ellipse cx="4.475" cy="4.781" fill="#fff" rx="4.475" ry="4.781" transform="matrix(-.18967 .98185 .98621 .16548 271.479 355.983)"/><ellipse cx="4.653" cy="4.607" fill="#fff" rx="4.653" ry="4.607" transform="matrix(.64929 .7446 .80685 -.61113 279.787 386.673)"/><path stroke="#fff" stroke-linecap="square" stroke-width="6.758" d="M187.755 380.336c3.729-2.664 10.649-10.292 8.503-19.493"/><ellipse cx="4.96" cy="5.261" fill="#fff" rx="4.96" ry="5.261" transform="matrix(.30353 .95282 -.96379 .26668 198.385 353.048)"/><ellipse cx="5.135" cy="5.09" fill="#fff" rx="5.135" ry="5.09" transform="matrix(-.55754 .80718 -.87376 -.52423 190.912 379.124)"/><ellipse cx="4.96" cy="5.261" fill="#fff" rx="4.96" ry="5.261" transform="matrix(.30353 .95282 -.96379 .26668 205.913 354.495)"/><ellipse cx="5.135" cy="5.09" fill="#fff" rx="5.135" ry="5.09" transform="matrix(-.55754 .80718 -.87376 -.52423 196.842 382.681)"/><path stroke="#fff" stroke-linecap="square" stroke-width="6.758" d="M403.277 261.127c-3.864-6.127-15.314-17.976-30.202-16.356"/><ellipse cx="5.302" cy="4.819" fill="#fff" rx="5.302" ry="4.819" transform="matrix(.98283 -.18453 .21128 .97743 362.403 242.745)"/><ellipse cx="5.03" cy="5.102" fill="#fff" rx="5.03" ry="5.102" transform="matrix(.82899 .58312 -.64432 .74724 402.28 258.167)"/><ellipse cx="5.302" cy="4.819" fill="#fff" rx="5.302" ry="4.819" transform="matrix(.98283 -.18453 .21128 .97743 364.955 236.981)"/><ellipse cx="5.03" cy="5.102" fill="#fff" rx="5.03" ry="5.102" transform="matrix(.82899 .58312 -.64432 .74724 406.663 253.084)"/><path stroke="#fff" stroke-linecap="square" stroke-width="6.758" d="M115.745 273.81c3.755.197 12.205-1.044 15.963-7.585"/><ellipse cx="4.491" cy="4.567" fill="#fff" rx="4.491" ry="4.567" transform="matrix(-.4281 .90373 -.92478 -.38051 138.809 259.993)"/><ellipse cx="4.584" cy="4.475" fill="#fff" rx="4.584" ry="4.475" transform="matrix(-1.01879 .05701 -.03103 -.97847 115.563 274.806)"/><ellipse cx="4.491" cy="4.567" fill="#fff" rx="4.491" ry="4.567" transform="matrix(-.4281 .90373 -.92478 -.38051 142.016 265.427)"/><ellipse cx="4.584" cy="4.475" fill="#fff" rx="4.584" ry="4.475" transform="matrix(-1.01879 .05701 -.03103 -.97847 115.748 280.644)"/><path stroke="#fff" stroke-linecap="square" stroke-width="6.758" d="M415.308 295.925c2.002-2.824 4.965-10.133.796-16.773"/><ellipse cx="5.128" cy="4.992" fill="#fff" rx="5.128" ry="4.992" transform="matrix(.7125 .70167 -.74996 .66148 410.862 269.692)"/><ellipse cx="5.051" cy="5.071" fill="#fff" rx="5.051" ry="5.071" transform="matrix(-.09035 .9603 -1.02774 -.11344 418.073 292.824)"/><ellipse cx="5.128" cy="4.992" fill="#fff" rx="5.128" ry="4.992" transform="matrix(.7125 .70167 -.74996 .66148 417.344 267.857)"/><ellipse cx="5.051" cy="5.071" fill="#fff" rx="5.051" ry="5.071" transform="matrix(-.09035 .9603 -1.02774 -.11344 425.874 293.485)"/><path stroke="#fff" stroke-linecap="round" stroke-width="6.758" d="M247.39 325.381c3.691 2.07 10.424 7.783 10.424 15.983"/><ellipse cx="4.164" cy="4.459" fill="#fff" rx="4.164" ry="4.459" transform="matrix(.12796 -.99178 -.99378 -.11138 265.372 340.679)"/><path stroke="#fff" stroke-linecap="round" stroke-width="6.758" d="M221.815 324.824c-3.55 1.476-9.868 6.811-11.536 13.204"/><path fill="#fff" d="M206.69 328.378c2.447-.274 4.67 1.352 4.964 3.633.294 2.281-1.451 4.352-3.898 4.626s-4.67-1.352-4.964-3.633c-.294-2.281 1.451-4.352 3.898-4.626Z"/><path stroke="#fff" stroke-linecap="square" stroke-width="6.758" d="M216.987 282.36c-2.827-.55-8.841-3.06-10.28-8.69"/><ellipse cx="3.036" cy="3.246" fill="#fff" rx="3.036" ry="3.246" transform="matrix(.16995 .98545 .98896 -.14815 204.051 268.947)"/><ellipse cx="3.158" cy="3.127" fill="#fff" rx="3.158" ry="3.127" transform="matrix(.87715 .50218 .54424 -.82571 214.891 282.472)"/><ellipse cx="3.036" cy="3.246" fill="#fff" rx="3.036" ry="3.246" transform="matrix(.16995 .98545 .98896 -.14815 199.771 271.64)"/><ellipse cx="3.158" cy="3.127" fill="#fff" rx="3.158" ry="3.127" transform="matrix(.87715 .50218 .54424 -.82571 212.622 285.915)"/><ellipse cx="7.925" cy="14.093" fill="#fff" rx="7.925" ry="14.093" transform="matrix(.31058 .93314 .98667 -.23546 240.819 306.831)"/><ellipse cx="7.785" cy="14.298" fill="#fff" rx="7.785" ry="14.298" transform="matrix(-.10614 .98967 .99262 .13957 196.193 301.608)"/><path fill="#fff" fill-rule="evenodd" d="m252.528 308.084-35.693-.799 2.439 20.857 29.744.666 3.51-20.724Zm-24.694 5.294c-1.112-.166-2.091.761-1.964 1.876l.692 6.049a1.683 1.683 0 0 0 1.636 1.491l10.694.24a1.698 1.698 0 0 0 1.711-1.416l1.004-6.016c.184-1.106-.745-2.076-1.863-1.962-4.851.494-7.328.424-11.91-.262Z" clip-rule="evenodd"/><path fill="#547C53" stroke="#78AD84" stroke-miterlimit="10" stroke-width="7" d="M431.037 338.794c1.591 7.206.616 15.4-6.842 24.503-10.726 13.026-20.066 19.69-28.687 13.344-7.595 5.692-15.258 4.209-21.502-.924-5.217 2.009-11.29 1.594-17.106-4.926a9.377 9.377 0 0 1-4.38.646 9.196 9.196 0 0 1-4.161-1.428 8.387 8.387 0 0 1-2.884-3.138 7.722 7.722 0 0 1-.874-4.052c.804-11.654 10.708-11.845 14.471-24.025 2.874-9.263 8.673-12.994 20.031-16.421-3.027-10.969 6.843-21.347 35.033-13.248 28.191 8.098 32.074 27.022 16.901 29.669Z"/><path fill="#547C53" stroke="#78AD84" stroke-miterlimit="10" stroke-width="7" d="M431.037 338.794c1.591 7.206.616 15.4-6.842 24.503-10.726 13.026-20.066 19.69-28.687 13.344-7.595 5.692-15.258 4.209-21.502-.924-5.217 2.009-11.29 1.594-17.106-4.926a9.377 9.377 0 0 1-4.38.646 9.196 9.196 0 0 1-4.161-1.428 8.387 8.387 0 0 1-2.884-3.138 7.722 7.722 0 0 1-.874-4.052c.804-11.654 10.708-11.845 14.471-24.025 2.874-9.263 8.673-12.994 20.031-16.421-3.027-10.969 6.843-21.347 35.033-13.248 28.191 8.098 32.074 27.022 16.901 29.669Z"/><path fill="#547C53" stroke="#78AD84" stroke-miterlimit="10" stroke-width="7" d="M431.037 338.794c1.591 7.206.616 15.4-6.842 24.503-10.726 13.026-20.066 19.69-28.687 13.344-7.595 5.692-15.258 4.209-21.502-.924-5.217 2.009-11.29 1.594-17.106-4.926a9.377 9.377 0 0 1-4.38.646 9.196 9.196 0 0 1-4.161-1.428 8.387 8.387 0 0 1-2.884-3.138 7.722 7.722 0 0 1-.874-4.052c.804-11.654 10.708-11.845 14.471-24.025 2.874-9.263 8.673-12.994 20.031-16.421-3.027-10.969 6.843-21.347 35.033-13.248 28.191 8.098 32.074 27.022 16.901 29.669Z"/><path fill="#364135" stroke="#78AD84" stroke-miterlimit="10" stroke-width="7" d="M431.037 338.794c1.591 7.206.616 15.4-6.842 24.503-10.726 13.026-20.066 19.69-28.687 13.344-7.595 5.692-15.258 4.209-21.502-.924-5.217 2.009-11.29 1.594-17.106-4.926a9.377 9.377 0 0 1-4.38.646 9.196 9.196 0 0 1-4.161-1.428 8.387 8.387 0 0 1-2.884-3.138 7.722 7.722 0 0 1-.874-4.052c.804-11.654 10.708-11.845 14.471-24.025 2.874-9.263 8.673-12.994 20.031-16.421-3.027-10.969 6.843-21.347 35.033-13.248 28.191 8.098 32.074 27.022 16.901 29.669Z"/><path stroke="#78AD84" stroke-linecap="round" stroke-linejoin="round" stroke-width="7" d="M375.494 345.027c-12.128 9.326-5.918 11.718-12.778 21.267-1.382 2.049-3.424 3.64-5.833 4.544a9.36 9.36 0 0 1-4.379.646 9.195 9.195 0 0 1-4.162-1.427 8.39 8.39 0 0 1-2.884-3.139 7.72 7.72 0 0 1-.874-4.051c.804-11.654 10.708-11.846 14.471-24.026 2.874-9.263 8.673-12.993 20.032-16.421 3.575-1.084 7.714-2.136 12.487-3.316"/><path stroke="#78AD84" stroke-linecap="round" stroke-linejoin="round" stroke-width="7" d="M379.12 322.309c-3.027-10.969 6.843-21.347 35.033-13.248 28.191 8.098 32.04 27.102 16.867 29.732"/><path stroke="#78AD84" stroke-linecap="round" stroke-linejoin="round" stroke-width="7" d="M427.394 328.973a41.59 41.59 0 0 1 3.643 9.82c1.591 7.207.616 15.401-6.842 24.504-10.726 13.025-20.066 19.689-28.687 13.344"/><path stroke="#78AD84" stroke-linecap="round" stroke-linejoin="round" stroke-width="7" d="M404.78 365.609c-2.311 4.201-5.471 7.947-9.306 11.032-7.595 5.692-15.259 4.209-21.502-.925"/><path stroke="#78AD84" stroke-linecap="round" stroke-linejoin="round" stroke-width="7" d="M356.883 370.838c5.748 6.473 11.82 6.935 17.106 4.926 5.306-2.374 9.714-6.193 12.641-10.952"/></g><path stroke="#1B1B1B" stroke-linecap="round" stroke-linejoin="round" stroke-width="4.103" d="M120.669 435.741h-.014"/><path fill="#A5E3B9" stroke="#000" stroke-linecap="round" stroke-linejoin="round" stroke-width="7" d="M142.987 435.862c-4.029 1.175-10.861.454-17.408.605-.957-5.792-.453-11.365-1.83-18.163 6.161-1.091 21.604 4.717 22.796 12.338.47 2.971-.99 4.482-3.558 5.22Z"/><path fill="#95BF47" stroke="#000" stroke-linecap="round" stroke-linejoin="round" stroke-width="7" d="M148.006 479.205c-.907-7.218-5.691-15.628-14.437-26.153a33.138 33.138 0 0 1-7.99-16.585c6.547-.151 13.429.571 17.407-.604a24.518 24.518 0 0 0 8.83 19.975c10.005 8.226 7.134 13.748-3.81 23.367Z"/><path fill="#3D3F40" stroke="#000" stroke-linecap="round" stroke-linejoin="round" stroke-width="7" d="M129.121 507.171c-9.753 6.798-24.055-2.753-33.993-22.645-9.937-19.892-14.083-21.252-23.77-31.139-8.392-8.645-23.08-36.124-14.906-49.536a13.426 13.426 0 0 1 5.036-4.885c11.936-6.715 32.516 7.05 42.05 36.93a108.026 108.026 0 0 0 17.542 33.573c8.931 11.901 17.324 31.222 8.041 37.702Z"/><path fill="#A5E3B9" stroke="#000" stroke-linecap="round" stroke-linejoin="round" stroke-width="7" d="M142.114 495.589c.42-4.909-.46-9.842-2.552-14.302-4.868-11.885-10.659-15.931-18.666-30.669a57.636 57.636 0 0 1-2.602-5.64 25.317 25.317 0 0 0 5.455-11.029c7.605 19.993 24.425 30.988 24.273 45.323-.067 6.077-1.208 11.314-5.908 16.317Z"/><path fill="#fff" stroke="#000" stroke-linecap="round" stroke-linejoin="round" stroke-width="7" d="M123.749 433.932a25.328 25.328 0 0 1-5.455 11.029c-5.271-13.01-9.988-32.667-26.372-47.808-12.304-11.364-24.189-9.132-30.601-3.038 10.558-19.221 36.107-21.302 53.716 4.65a52.69 52.69 0 0 1 8.746 19.539 37.787 37.787 0 0 1-.034 15.628Z"/><path fill="#fff" stroke="#000" stroke-linecap="round" stroke-linejoin="round" stroke-width="7" d="M142.097 495.605s-.319 9.216-12.976 11.566c9.283-6.48.89-25.801-7.957-37.652a108.015 108.015 0 0 1-17.542-33.573c-9.534-29.896-30.114-43.645-42.05-36.93a13.426 13.426 0 0 0-5.035 4.885 11.952 11.952 0 0 1 4.85-9.736c6.413-6.077 18.298-8.393 30.603 3.038 18.884 17.492 22.241 41.093 28.956 53.414 8.007 14.756 13.798 18.801 18.666 30.686a28.05 28.05 0 0 1 2.485 14.302Z"/><ellipse cx="523.388" cy="495.953" fill="silver" rx="77.442" ry="18.976"/><path fill="silver" d="M510.567 149.769h26.669v327.208h-26.669z"/><path fill="silver" d="M456.203 203.107h76.93v12.309h-76.93zM456.203 360.044h76.93v12.309h-76.93z"/><g clip-path="url(#d)"><path fill="#fff" stroke="#000" stroke-miterlimit="10" stroke-width="1.717" d="M95.373 277.106c-3.342 15.546-5.136 29.972-16.956 29.972-3.434 0-7.589-5.427-7.343-13.69-6.194 3.112-13.875 9.444-31.076 7.374 7.742-5.765 6.086-17.033-.69-19.317 2.637-2.024 5.09-4.952 7.206-8.892-1.932-1.916-3.803-4.676-5.489-8.401-.015-.031-.015-.046-.03-.092-5.918-13.308 3.204-25.71 13.061-28.393 2.131-.583 4.278-.705 6.332-.307 9.996 1.978 11.437 9.628 20.084 13.476 2.544-9.168 7.374-12.311 11.927-10.747 7.604 2.591 6.684 21.617 2.959 39.002l.015.015Z"/><path fill="#fff" d="M46.514 272.569c6.392 6.377 13.092 3.372 13.46-3.956.506-9.52-2.1-12.311 4.415-15.99"/><path stroke="#000" stroke-miterlimit="10" stroke-width="1.717" d="M46.514 272.569c6.392 6.377 13.092 3.372 13.46-3.956.506-9.52-2.1-12.311 4.415-15.99"/><path fill="#fff" d="M40.994 264.075c-8.31 4.124-23.073-2.698-23.318-16.251-.046-2.575.429-5.381 1.564-8.401 7.266-19.286 24.989-16.404 34.816-3.725-9.873 2.682-18.98 15.085-13.062 28.392v-.015Z"/><path fill="#fff" stroke="#000" stroke-miterlimit="10" stroke-width="1.717" d="M46.513 272.568c-2.115 3.941-4.568 6.869-7.205 8.892-8.57 6.654-18.98 4.094-26.001-1.931-.537-.445-1.028-.935-1.518-1.411-7.957-8.033-9.812-20.589 5.887-30.294.245 13.553 15.009 20.375 23.318 16.251.016.031.016.046.03.092 1.687 3.726 3.558 6.5 5.49 8.401Z"/><path fill="#fff" stroke="#000" stroke-miterlimit="10" stroke-width="1.717" d="M39.998 300.762c-1.886 1.426-4.34 2.514-7.405 3.066-15.883 2.836-27.458-11.544-20.789-25.71.475.475.981.966 1.518 1.411 7.021 6.025 17.431 8.585 26.001 1.931 6.776 2.269 8.432 13.553.69 19.317l-.015-.015Z"/><path stroke="#000" stroke-linecap="round" stroke-linejoin="round" stroke-width="7" d="M80.472 248.851c2.544-9.167 7.374-12.31 11.927-10.747 7.604 2.591 6.684 21.617 2.959 39.002-3.342 15.546-5.136 29.972-16.956 29.972-3.434 0-7.589-5.427-7.344-13.69"/><path stroke="#000" stroke-linecap="round" stroke-linejoin="round" stroke-width="7" d="M85.423 250.416c-1.885-.384-3.526-.905-4.952-1.564-8.646-3.848-10.087-11.498-20.083-13.476-2.04-.399-4.2-.276-6.332.306-9.873 2.683-18.98 15.086-13.062 28.393.016.031.016.046.03.092 1.687 3.726 3.558 6.501 5.49 8.402 6.392 6.377 13.092 3.372 13.46-3.956.506-9.52-2.1-12.31 4.415-15.99"/><path stroke="#000" stroke-linecap="round" stroke-linejoin="round" stroke-width="7" d="M40.994 264.075c-8.31 4.124-23.073-2.698-23.318-16.251-.046-2.575.429-5.381 1.564-8.401 7.266-19.286 24.989-16.404 34.816-3.725"/><path stroke="#000" stroke-linecap="round" stroke-linejoin="round" stroke-width="7" d="M17.676 247.824c-15.699 9.72-13.844 22.261-5.887 30.294.475.476.981.966 1.518 1.411 7.021 6.025 17.43 8.585 26 1.931 2.638-2.023 5.09-4.951 7.206-8.892"/><path stroke="#000" stroke-linecap="round" stroke-linejoin="round" stroke-width="7" d="M39.308 281.46c6.776 2.269 8.432 13.553.69 19.317-1.886 1.426-4.34 2.514-7.405 3.066-15.883 2.837-27.458-11.544-20.789-25.71"/><path stroke="#000" stroke-linecap="round" stroke-linejoin="round" stroke-width="7" d="M39.998 300.762c17.201 2.07 24.882-4.262 31.075-7.374 2.254-1.119 4.293-1.809 6.516-1.533"/></g><g clip-path="url(#e)"><path fill="#364135" stroke="#000" stroke-miterlimit="10" stroke-width="6.872" d="M95.373 277.106c-3.342 15.546-5.136 29.972-16.956 29.972-3.434 0-7.589-5.427-7.343-13.69-6.194 3.112-13.875 9.444-31.076 7.374 7.742-5.765 6.086-17.033-.69-19.317 2.637-2.024 5.09-4.952 7.206-8.892-1.932-1.916-3.803-4.676-5.489-8.401-.015-.031-.015-.046-.03-.092-5.918-13.308 3.204-25.71 13.061-28.393 2.131-.583 4.278-.705 6.332-.307 9.996 1.978 11.437 9.628 20.084 13.476 2.544-9.168 7.374-12.311 11.927-10.747 7.604 2.591 6.684 21.617 2.959 39.002l.015.015Z"/><path stroke="#78AD84" stroke-linecap="round" stroke-linejoin="round" stroke-width="7" d="M80.472 248.851c2.544-9.167 7.374-12.31 11.927-10.747 7.604 2.591 6.684 21.617 2.959 39.002-3.342 15.546-5.136 29.972-16.956 29.972-3.434 0-7.589-5.427-7.344-13.69"/><path stroke="#78AD84" stroke-linecap="round" stroke-linejoin="round" stroke-width="6.872" d="M85.423 250.416c-1.885-.384-3.526-.905-4.952-1.564-8.646-3.848-10.087-11.498-20.083-13.476-2.04-.399-4.2-.276-6.332.306-9.873 2.683-18.98 15.086-13.062 28.393.016.031.016.046.03.092 1.687 3.726 3.558 6.501 5.49 8.402 6.392 6.377 13.092 3.372 13.46-3.956.506-9.52-2.1-12.31 4.415-15.99M39.998 300.762c17.2 2.07 24.882-4.262 31.075-7.374 2.254-1.119 4.293-1.809 6.516-1.533"/></g><defs><clipPath id="c"><path fill="#fff" d="M78.735 185.162h373.75v210.16H78.736z"/></clipPath><clipPath id="d"><path fill="#fff" d="M.78 220.544h77.954v91.29H.78z"/></clipPath><clipPath id="e"><path fill="#fff" d="M102.327 220.544H78.735v91.29h23.592z"/></clipPath><filter id="a" width="393.88" height="33.849" x="45.2" y="516.98" color-interpolation-filters="sRGB" filterUnits="userSpaceOnUse"><feFlood flood-opacity="0" result="BackgroundImageFix"/><feBlend in="SourceGraphic" in2="BackgroundImageFix" result="shape"/><feGaussianBlur result="effect1_foregroundBlur_27_13152" stdDeviation="5.129"/></filter><filter id="b" width="175.4" height="29.746" x="435.689" y="519.032" color-interpolation-filters="sRGB" filterUnits="userSpaceOnUse"><feFlood flood-opacity="0" result="BackgroundImageFix"/><feBlend in="SourceGraphic" in2="BackgroundImageFix" result="shape"/><feGaussianBlur result="effect1_foregroundBlur_27_13152" stdDeviation="5.129"/></filter></defs></svg>
